<svg width="23" height="23" viewBox="0 0 23 23" fill="none" xmlns="http://www.w3.org/2000/svg">
<g id="icn bx-star">
<path id="Vector" d="M6.49967 13.1374L5.133 19.0554C5.09068 19.2346 5.10338 19.4224 5.16945 19.5943C5.23552 19.7662 5.35189 19.9141 5.50335 20.0188C5.65481 20.1235 5.83432 20.1801 6.01845 20.1812C6.20258 20.1823 6.38275 20.1278 6.53545 20.0249L11.5298 16.6954L16.5241 20.0249C16.6804 20.1287 16.8646 20.1821 17.0521 20.178C17.2396 20.1739 17.4213 20.1124 17.5729 20.0019C17.7244 19.8915 17.8385 19.7372 17.8998 19.56C17.961 19.3827 17.9665 19.191 17.9156 19.0105L16.2379 13.1402L20.3985 9.39603C20.5318 9.27605 20.6269 9.11963 20.6722 8.94614C20.7175 8.77264 20.711 8.58967 20.6534 8.41986C20.5958 8.25004 20.4897 8.10083 20.3483 7.99067C20.2068 7.88051 20.0361 7.81423 19.8574 7.80004L14.6282 7.38362L12.3654 2.3746C12.2932 2.21331 12.1759 2.07635 12.0277 1.98025C11.8794 1.88415 11.7065 1.83301 11.5298 1.83301C11.3531 1.83301 11.1802 1.88415 11.0319 1.98025C10.8836 2.07635 10.7663 2.21331 10.6942 2.3746L8.43137 7.38362L3.20222 7.79913C3.02653 7.81305 2.85857 7.87729 2.71843 7.98416C2.57829 8.09104 2.47191 8.23602 2.41202 8.40178C2.35212 8.56753 2.34125 8.74703 2.38069 8.9188C2.42014 9.09057 2.50824 9.24734 2.63445 9.37035L6.49967 13.1374ZM9.11654 9.16947C9.28027 9.15658 9.4375 9.09987 9.57177 9.0053C9.70604 8.91073 9.81239 8.78179 9.87968 8.63198L11.5298 4.98047L13.1799 8.63198C13.2472 8.78179 13.3535 8.91073 13.4878 9.0053C13.6221 9.09987 13.7793 9.15658 13.943 9.16947L17.5863 9.4584L14.586 12.1587C14.3255 12.3936 14.2219 12.7549 14.3173 13.0925L15.4666 17.1146L12.0398 14.8297C11.8894 14.7288 11.7123 14.6749 11.5312 14.6749C11.35 14.6749 11.173 14.7288 11.0226 14.8297L7.44167 17.2173L8.40477 13.0475C8.44008 12.8942 8.43534 12.7343 8.39101 12.5833C8.34667 12.4323 8.26423 12.2953 8.15161 12.1853L5.36506 9.46849L9.11654 9.16947Z" fill="#F3CD03"/>
</g>
</svg>
